<?xml version="1.0" encoding="UTF-8"?>
<svg id="Livello_1" xmlns="http://www.w3.org/2000/svg" version="1.1" viewBox="0 0 497.67 55.37">
  <!-- Generator: Adobe Illustrator 30.6.0, SVG Export Plug-In . SVG Version: 2.1.4 Build 109)  -->
  <path d="M17.74,54.62c-.46-1.39-.77-2.24-.77-6.63v-8.49c0-5.01-1.7-6.87-5.55-6.87h-2.93v21.98H0V.62h12.81c8.79,0,12.57,4.09,12.57,12.42v4.24c0,5.55-1.77,9.1-5.55,10.88v.16c4.24,1.77,5.63,5.78,5.63,11.42v8.33c0,2.62.08,4.55.93,6.56h-8.64ZM8.49,8.33v16.59h3.32c3.16,0,5.09-1.39,5.09-5.71v-5.32c0-3.86-1.31-5.55-4.32-5.55h-4.09Z"/>
  <path d="M29.47.62h8.49v54h-8.49V.62Z"/>
  <path d="M67.19,34.48v7.17c0,8.64-4.32,13.58-12.65,13.58s-12.65-4.94-12.65-13.58V13.58c0-8.64,4.32-13.58,12.65-13.58s12.65,4.94,12.65,13.58v5.25h-8.02v-5.79c0-3.86-1.7-5.32-4.4-5.32s-4.4,1.47-4.4,5.32v29.16c0,3.86,1.7,5.25,4.4,5.25s4.4-1.39,4.4-5.25v-7.71h8.02Z"/>
  <path d="M95.42,34.48v7.17c0,8.64-4.32,13.58-12.65,13.58s-12.65-4.94-12.65-13.58V13.58c0-8.64,4.32-13.58,12.65-13.58s12.65,4.94,12.65,13.58v5.25h-8.02v-5.79c0-3.86-1.7-5.32-4.4-5.32s-4.4,1.47-4.4,5.32v29.16c0,3.86,1.7,5.25,4.4,5.25s4.4-1.39,4.4-5.25v-7.71h8.02Z"/>
  <path d="M126.5,54.62h-8.56l-1.47-9.8h-10.41l-1.47,9.8h-7.79L105.44.62h12.42l8.64,54ZM107.14,37.49h8.18l-4.01-27.31h-.16l-4.01,27.31Z"/>
  <path d="M146.64,54.62c-.46-1.39-.77-2.24-.77-6.63v-8.49c0-5.01-1.7-6.87-5.55-6.87h-2.93v21.98h-8.49V.62h12.81c8.79,0,12.57,4.09,12.57,12.42v4.24c0,5.55-1.77,9.1-5.55,10.88v.16c4.24,1.77,5.63,5.78,5.63,11.42v8.33c0,2.62.08,4.55.93,6.56h-8.64ZM137.38,8.33v16.59h3.32c3.16,0,5.09-1.39,5.09-5.71v-5.32c0-3.86-1.31-5.55-4.32-5.55h-4.09Z"/>
  <path d="M158.36.62h13.42c8.49,0,12.65,4.71,12.65,13.35v27.31c0,8.64-4.17,13.35-12.65,13.35h-13.42V.62ZM166.85,8.33v38.57h4.78c2.7,0,4.32-1.39,4.32-5.25V13.58c0-3.86-1.62-5.25-4.32-5.25h-4.78Z"/>
  <path d="M187.6,13.58c0-8.64,4.55-13.58,12.88-13.58s12.88,4.94,12.88,13.58v28.08c0,8.64-4.55,13.58-12.88,13.58s-12.88-4.94-12.88-13.58V13.58ZM196.08,42.2c0,3.86,1.7,5.32,4.4,5.32s4.4-1.47,4.4-5.32V13.04c0-3.86-1.7-5.32-4.4-5.32s-4.4,1.47-4.4,5.32v29.16Z"/>
  <path d="M245.45,54.62c-.46-1.39-.77-2.24-.77-6.63v-8.49c0-5.01-1.7-6.87-5.55-6.87h-2.93v21.98h-8.49V.62h12.81c8.79,0,12.57,4.09,12.57,12.42v4.24c0,5.55-1.77,9.1-5.55,10.88v.16c4.24,1.77,5.63,5.78,5.63,11.42v8.33c0,2.62.08,4.55.93,6.56h-8.64ZM236.19,8.33v16.59h3.32c3.16,0,5.09-1.39,5.09-5.71v-5.32c0-3.86-1.31-5.55-4.32-5.55h-4.09Z"/>
  <path d="M265.27.62v41.66c0,3.86,1.7,5.25,4.4,5.25s4.4-1.39,4.4-5.25V.62h8.02v41.12c0,8.64-4.32,13.58-12.65,13.58s-12.65-4.94-12.65-13.58V.62h8.49Z"/>
  <path d="M286.33.62h8.49v54h-8.49V.62Z"/>
  <path d="M307.16,15.5h-.16v39.11h-7.64V.62h10.65l8.56,32.32h.15V.62h7.56v54h-8.72l-10.41-39.11Z"/>
  <path d="M330.84.62h8.48v54h-8.48V.62Z"/>
  <path d="M365.78,0c8.25,0,12.5,4.94,12.5,13.58v1.7h-8.02v-2.24c0-3.86-1.54-5.32-4.24-5.32s-4.24,1.47-4.24,5.32,1.7,6.87,7.25,11.73c7.1,6.25,9.33,10.72,9.33,16.89,0,8.64-4.32,13.58-12.65,13.58s-12.65-4.94-12.65-13.58v-3.32h8.02v3.86c0,3.86,1.7,5.25,4.4,5.25s4.4-1.39,4.4-5.25-1.7-6.87-7.25-11.73c-7.1-6.25-9.33-10.72-9.33-16.89,0-8.64,4.24-13.58,12.5-13.58Z"/>
  <path d="M378.76.62h18.51v7.71h-4.99v46.28h-8.48V8.33h-5.04V.62Z"/>
  <path d="M408.5.68v41.66c0,3.86,1.7,5.25,4.4,5.25s4.4-1.39,4.4-5.25V.68h8.02v41.12c0,8.64-4.32,13.58-12.65,13.58s-12.65-4.94-12.65-13.58V.68h8.49Z"/>
  <path d="M429.56.68h13.42c8.48,0,12.65,4.71,12.65,13.35v27.31c0,8.64-4.17,13.35-12.65,13.35h-13.42V.68ZM438.05,8.39v38.57h4.78c2.7,0,4.32-1.39,4.32-5.25V13.64c0-3.86-1.62-5.25-4.32-5.25h-4.78Z"/>
  <path d="M459.49.68h8.48v54h-8.48V.68Z"/>
  <path d="M471.91,13.64c0-8.64,4.55-13.58,12.88-13.58s12.88,4.94,12.88,13.58v28.08c0,8.64-4.55,13.58-12.88,13.58s-12.88-4.94-12.88-13.58V13.64ZM480.39,42.26c0,3.86,1.7,5.32,4.4,5.32s4.4-1.47,4.4-5.32V13.1c0-3.86-1.7-5.32-4.4-5.32s-4.4,1.47-4.4,5.32v29.16Z"/>
</svg>