<?xml version="1.0" encoding="UTF-8"?>
<svg id="Livello_1" xmlns="http://www.w3.org/2000/svg" version="1.1" viewBox="0 0 344.23 524.78">
  <!-- Generator: Adobe Illustrator 30.6.0, SVG Export Plug-In . SVG Version: 2.1.4 Build 109)  -->
  <path d="M105.86,306.62c-9.12-10.81-7.8-16.81-7.8-41.78l-1.69-44.07c0-28.47-9.64-38.98-31.54-38.98h-16.64v124.83H0V0h72.71c49.93,0,71.4,23.21,71.4,70.52v24.09c0,31.54-10.07,51.69-31.54,61.76v.88c24.09,10.08,31.98,32.85,31.98,64.83v47.31c0,14.89.44,25.84,5.26,37.23h-43.95ZM48.18,43.8v94.18h18.83c17.96,0,28.91-7.89,28.91-32.42v-30.22c0-21.91-7.45-31.54-24.53-31.54h-23.22Z"/>
  <path d="M295.17,306.62c-2.63-7.89-4.38-12.7-4.38-37.67v-48.19c0-28.47-9.64-38.98-31.54-38.98h-16.64v124.83h-48.18V0h72.71c49.93,0,71.4,23.21,71.4,70.52v24.09c0,31.54-10.07,51.69-31.54,61.76v.88c24.09,10.08,31.98,32.85,31.98,64.83v47.31c0,14.89.44,25.84,5.26,37.23h-49.06ZM242.6,43.8v94.18h18.83c17.96,0,28.91-7.89,28.91-32.42v-30.22c0-21.91-7.45-31.54-24.53-31.54h-23.22Z"/>
  <path d="M169.01,211.15c46.86,0,70.96,28.03,70.96,77.09v9.64h-45.55v-12.71c0-21.9-8.76-30.22-24.09-30.22s-24.09,8.32-24.09,30.22,9.63,38.98,41.17,66.58c40.3,35.48,53,60.89,53,95.93,0,49.06-24.53,77.09-71.84,77.09s-71.84-28.03-71.84-77.09v-18.84h45.55v21.91c0,21.9,9.64,29.79,24.97,29.79s24.97-7.89,24.97-29.79-9.64-38.99-41.18-66.58c-40.3-35.49-53-60.89-53-95.93,0-49.06,24.09-77.09,70.96-77.09Z"/>
</svg>